<svg version="1.1" viewBox="0.0 0.0 600.0 371.0" fill="none" stroke="none" stroke-linecap="square" stroke-miterlimit="10" width="600" height="371" xmlns:xlink="http://www.w3.org/1999/xlink" xmlns="http://www.w3.org/2000/svg"><path fill="#ffffff" d="M0 0L600.0 0L600.0 371.0L0 371.0L0 0Z" fill-rule="nonzero"/><clipPath id="id_0"><path d="M18.55 59.5L581.45 59.5L581.45 284.5L18.55 284.5L18.55 59.5Z" clip-rule="nonzero"/></clipPath><path stroke="#000000" stroke-width="0.0" stroke-linecap="butt" stroke-opacity="0.0" clip-path="url(#id_0)" d="M179.0 285.0L102.0 285.0L102.0 229.0C102.0 227.89543 102.89543 227.0 104.0 227.0L177.0 227.0C178.10457 227.0 179.0 227.89543 179.0 229.0Z" fill-rule="nonzero"/><path fill="#666666" clip-path="url(#id_0)" d="M179.0 285.0L102.0 285.0L102.0 229.0C102.0 227.89543 102.89543 227.0 104.0 227.0L177.0 227.0C178.10457 227.0 179.0 227.89543 179.0 229.0Z" fill-rule="nonzero"/><path stroke="#000000" stroke-width="0.0" stroke-linecap="butt" stroke-opacity="0.0" clip-path="url(#id_0)" d="M419.0 285.0L342.0 285.0L342.0 62.0C342.0 60.89543 342.89542 60.0 344.0 60.0L417.0 60.0C418.10458 60.0 419.0 60.89543 419.0 62.0Z" fill-rule="nonzero"/><path fill="#666666" clip-path="url(#id_0)" d="M419.0 285.0L342.0 285.0L342.0 62.0C342.0 60.89543 342.89542 60.0 344.0 60.0L417.0 60.0C418.10458 60.0 419.0 60.89543 419.0 62.0Z" fill-rule="nonzero"/><path stroke="#000000" stroke-width="0.0" stroke-linecap="butt" stroke-opacity="0.0" clip-path="url(#id_0)" d="M257.0 285.0L180.0 285.0L180.0 62.0C180.0 60.89543 180.89543 60.0 182.0 60.0L255.0 60.0C256.10458 60.0 257.0 60.89543 257.0 62.0Z" fill-rule="nonzero"/><path fill="#db4437" clip-path="url(#id_0)" d="M257.0 285.0L180.0 285.0L180.0 62.0C180.0 60.89543 180.89543 60.0 182.0 60.0L255.0 60.0C256.10458 60.0 257.0 60.89543 257.0 62.0Z" fill-rule="nonzero"/><path stroke="#000000" stroke-width="0.0" stroke-linecap="butt" stroke-opacity="0.0" clip-path="url(#id_0)" d="M497.0 285.0L420.0 285.0L420.0 250.0C420.0 248.89543 420.89542 248.0 422.0 248.0L495.0 248.0C496.10458 248.0 497.0 248.89543 497.0 250.0Z" fill-rule="nonzero"/><path fill="#db4437" clip-path="url(#id_0)" d="M497.0 285.0L420.0 285.0L420.0 250.0C420.0 248.89543 420.89542 248.0 422.0 248.0L495.0 248.0C496.10458 248.0 497.0 248.89543 497.0 250.0Z" fill-rule="nonzero"/><path stroke="#666666" stroke-width="3.0" stroke-linejoin="round" stroke-linecap="round" d="M142.5625 243.49599Q141.67188 244.35536 140.5 244.35536Q138.98438 244.35536 138.07812 243.32411Q137.17188 242.29286 137.17188 240.52724Q137.17188 239.41786 137.65625 238.48036Q138.15625 237.54286 139.03125 237.02724Q139.90625 236.51161 141.0 236.51161Q142.125 236.51161 143.0 237.07411Q143.875 237.63661 144.35938 238.69911Q144.84375 239.74599 144.84375 241.10536L144.84375 241.93349Q144.84375 244.77724 143.42188 246.40224Q142.01562 248.02724 139.42188 248.15224L138.875 248.15224L138.875 246.26161L139.375 246.26161Q142.3125 246.12099 142.5625 243.49599ZM141.04688 242.63661Q141.59375 242.63661 141.98438 242.35536Q142.39062 242.07411 142.59375 241.66786L142.59375 240.74599Q142.59375 239.58974 142.15625 238.96474Q141.71875 238.32411 140.98438 238.32411Q140.29688 238.32411 139.85938 238.94911Q139.42188 239.57411 139.42188 240.51161Q139.42188 241.43349 139.84375 242.04286Q140.28125 242.63661 141.04688 242.63661Z" fill-rule="nonzero"/><path fill="#ffffff" d="M142.5625 243.49599Q141.67188 244.35536 140.5 244.35536Q138.98438 244.35536 138.07812 243.32411Q137.17188 242.29286 137.17188 240.52724Q137.17188 239.41786 137.65625 238.48036Q138.15625 237.54286 139.03125 237.02724Q139.90625 236.51161 141.0 236.51161Q142.125 236.51161 143.0 237.07411Q143.875 237.63661 144.35938 238.69911Q144.84375 239.74599 144.84375 241.10536L144.84375 241.93349Q144.84375 244.77724 143.42188 246.40224Q142.01562 248.02724 139.42188 248.15224L138.875 248.15224L138.875 246.26161L139.375 246.26161Q142.3125 246.12099 142.5625 243.49599ZM141.04688 242.63661Q141.59375 242.63661 141.98438 242.35536Q142.39062 242.07411 142.59375 241.66786L142.59375 240.74599Q142.59375 239.58974 142.15625 238.96474Q141.71875 238.32411 140.98438 238.32411Q140.29688 238.32411 139.85938 238.94911Q139.42188 239.57411 139.42188 240.51161Q139.42188 241.43349 139.84375 242.04286Q140.28125 242.63661 141.04688 242.63661Z" fill-rule="nonzero"/><path stroke="#666666" stroke-width="3.0" stroke-linejoin="round" stroke-linecap="round" d="M375.07812 74.2125L376.28125 74.2125Q377.14062 74.2125 377.54688 73.79063Q377.96875 73.35313 377.96875 72.63438Q377.96875 71.94688 377.54688 71.57188Q377.14062 71.18125 376.42188 71.18125Q375.78125 71.18125 375.34375 71.54063Q374.90625 71.9 374.90625 72.4625L372.64062 72.4625Q372.64062 71.57188 373.125 70.86875Q373.60938 70.16563 374.46875 69.775Q375.32812 69.36875 376.375 69.36875Q378.17188 69.36875 379.1875 70.22813Q380.21875 71.0875 380.21875 72.60313Q380.21875 73.38438 379.73438 74.04063Q379.26562 74.69688 378.5 75.05625Q379.45312 75.4 379.92188 76.0875Q380.40625 76.775 380.40625 77.7125Q380.40625 79.22813 379.29688 80.15Q378.1875 81.05625 376.375 81.05625Q374.67188 81.05625 373.57812 80.16563Q372.5 79.25938 372.5 77.775L374.76562 77.775Q374.76562 78.41563 375.23438 78.82188Q375.71875 79.22813 376.42188 79.22813Q377.23438 79.22813 377.6875 78.80625Q378.14062 78.38438 378.14062 77.68125Q378.14062 75.97813 376.26562 75.97813L375.07812 75.97813L375.07812 74.2125ZM382.10938 75.30625L382.76562 69.525L389.14062 69.525L389.14062 71.4L384.625 71.4L384.34375 73.85313Q385.14062 73.41563 386.04688 73.41563Q387.67188 73.41563 388.59375 74.43125Q389.51562 75.43125 389.51562 77.24375Q389.51562 78.35313 389.04688 79.22813Q388.59375 80.0875 387.71875 80.57188Q386.85938 81.05625 385.67188 81.05625Q384.64062 81.05625 383.75 80.63438Q382.875 80.2125 382.35938 79.4625Q381.85938 78.69688 381.82812 77.72813L384.0625 77.72813Q384.125 78.44688 384.54688 78.8375Q384.98438 79.22813 385.67188 79.22813Q386.4375 79.22813 386.84375 78.68125Q387.26562 78.13438 387.26562 77.11875Q387.26562 76.15 386.78125 75.63438Q386.3125 75.11875 385.4375 75.11875Q384.625 75.11875 384.125 75.54063L383.90625 75.74375L382.10938 75.30625Z" fill-rule="nonzero"/><path fill="#ffffff" d="M375.07812 74.2125L376.28125 74.2125Q377.14062 74.2125 377.54688 73.79063Q377.96875 73.35313 377.96875 72.63438Q377.96875 71.94688 377.54688 71.57188Q377.14062 71.18125 376.42188 71.18125Q375.78125 71.18125 375.34375 71.54063Q374.90625 71.9 374.90625 72.4625L372.64062 72.4625Q372.64062 71.57188 373.125 70.86875Q373.60938 70.16563 374.46875 69.775Q375.32812 69.36875 376.375 69.36875Q378.17188 69.36875 379.1875 70.22813Q380.21875 71.0875 380.21875 72.60313Q380.21875 73.38438 379.73438 74.04063Q379.26562 74.69688 378.5 75.05625Q379.45312 75.4 379.92188 76.0875Q380.40625 76.775 380.40625 77.7125Q380.40625 79.22813 379.29688 80.15Q378.1875 81.05625 376.375 81.05625Q374.67188 81.05625 373.57812 80.16563Q372.5 79.25938 372.5 77.775L374.76562 77.775Q374.76562 78.41563 375.23438 78.82188Q375.71875 79.22813 376.42188 79.22813Q377.23438 79.22813 377.6875 78.80625Q378.14062 78.38438 378.14062 77.68125Q378.14062 75.97813 376.26562 75.97813L375.07812 75.97813L375.07812 74.2125ZM382.10938 75.30625L382.76562 69.525L389.14062 69.525L389.14062 71.4L384.625 71.4L384.34375 73.85313Q385.14062 73.41563 386.04688 73.41563Q387.67188 73.41563 388.59375 74.43125Q389.51562 75.43125 389.51562 77.24375Q389.51562 78.35313 389.04688 79.22813Q388.59375 80.0875 387.71875 80.57188Q386.85938 81.05625 385.67188 81.05625Q384.64062 81.05625 383.75 80.63438Q382.875 80.2125 382.35938 79.4625Q381.85938 78.69688 381.82812 77.72813L384.0625 77.72813Q384.125 78.44688 384.54688 78.8375Q384.98438 79.22813 385.67188 79.22813Q386.4375 79.22813 386.84375 78.68125Q387.26562 78.13438 387.26562 77.11875Q387.26562 76.15 386.78125 75.63438Q386.3125 75.11875 385.4375 75.11875Q384.625 75.11875 384.125 75.54063L383.90625 75.74375L382.10938 75.30625Z" fill-rule="nonzero"/><path stroke="#db4437" stroke-width="3.0" stroke-linejoin="round" stroke-linecap="round" d="M200.67188 77.9Q200.67188 77.25938 200.3125 76.88438Q199.96875 76.50938 199.10938 76.19688Q198.26562 75.86875 197.64062 75.55625Q197.03125 75.22813 196.57812 74.82188Q196.14062 74.41563 195.89062 73.86875Q195.65625 73.30625 195.65625 72.54063Q195.65625 71.2125 196.5 70.36875Q197.34375 69.525 198.73438 69.38438L198.73438 67.7125L199.98438 67.7125L199.98438 69.41563Q201.375 69.60313 202.15625 70.57188Q202.9375 71.525 202.9375 73.04063L200.67188 73.04063Q200.67188 72.10313 200.28125 71.65Q199.90625 71.18125 199.25 71.18125Q198.60938 71.18125 198.25 71.54063Q197.90625 71.9 197.90625 72.54063Q197.90625 73.13438 198.25 73.49375Q198.59375 73.85313 199.53125 74.22813Q200.46875 74.60313 201.0625 74.94688Q201.67188 75.275 202.07812 75.69688Q202.5 76.10313 202.71875 76.65Q202.9375 77.18125 202.9375 77.88438Q202.9375 79.2125 202.10938 80.04063Q201.28125 80.86875 199.82812 81.025L199.82812 82.5875L198.57812 82.5875L198.57812 81.04063Q196.98438 80.85313 196.09375 79.9Q195.21875 78.93125 195.21875 77.32188L197.48438 77.32188Q197.48438 78.25938 197.92188 78.75938Q198.35938 79.24375 199.1875 79.24375Q199.875 79.24375 200.26562 78.88438Q200.67188 78.525 200.67188 77.9ZM209.76562 80.9L207.5 80.9L207.5 72.19688L204.8125 73.025L204.8125 71.19688L209.51562 69.50938L209.76562 69.50938L209.76562 80.9ZM213.95312 83.75938L212.78125 83.13438L213.0625 82.63438Q213.57812 81.68125 213.59375 80.72813L213.59375 78.97813L215.5 78.97813L215.5 80.54063Q215.48438 81.41563 215.04688 82.29063Q214.625 83.18125 213.95312 83.75938ZM225.01562 70.79063L220.60938 80.9L218.23438 80.9L222.64062 71.35313L216.98438 71.35313L216.98438 69.525L225.01562 69.525L225.01562 70.79063ZM234.01562 70.79063L229.60938 80.9L227.23438 80.9L231.64062 71.35313L225.98438 71.35313L225.98438 69.525L234.01562 69.525L234.01562 70.79063ZM242.6875 72.54063Q242.6875 73.36875 242.26562 74.00938Q241.85938 74.65 241.14062 75.04063Q241.96875 75.43125 242.45312 76.13438Q242.9375 76.8375 242.9375 77.775Q242.9375 79.29063 241.90625 80.18125Q240.875 81.05625 239.09375 81.05625Q237.32812 81.05625 236.28125 80.18125Q235.25 79.29063 235.25 77.775Q235.25 76.8375 235.73438 76.13438Q236.21875 75.43125 237.03125 75.04063Q236.3125 74.65 235.89062 74.00938Q235.48438 73.36875 235.48438 72.54063Q235.48438 71.0875 236.45312 70.22813Q237.42188 69.36875 239.09375 69.36875Q240.75 69.36875 241.71875 70.22813Q242.6875 71.07188 242.6875 72.54063ZM240.67188 77.61875Q240.67188 76.86875 240.23438 76.43125Q239.8125 75.97813 239.07812 75.97813Q238.35938 75.97813 237.92188 76.43125Q237.5 76.86875 237.5 77.61875Q237.5 78.3375 237.92188 78.79063Q238.34375 79.22813 239.09375 79.22813Q239.82812 79.22813 240.25 78.80625Q240.67188 78.36875 240.67188 77.61875ZM240.4375 72.65Q240.4375 71.99375 240.07812 71.5875Q239.73438 71.18125 239.09375 71.18125Q238.45312 71.18125 238.09375 71.57188Q237.75 71.9625 237.75 72.65Q237.75 73.3375 238.09375 73.75938Q238.45312 74.16563 239.09375 74.16563Q239.73438 74.16563 240.07812 73.75938Q240.4375 73.3375 240.4375 72.65Z" fill-rule="nonzero"/><path fill="#ffffff" d="M200.67188 77.9Q200.67188 77.25938 200.3125 76.88438Q199.96875 76.50938 199.10938 76.19688Q198.26562 75.86875 197.64062 75.55625Q197.03125 75.22813 196.57812 74.82188Q196.14062 74.41563 195.89062 73.86875Q195.65625 73.30625 195.65625 72.54063Q195.65625 71.2125 196.5 70.36875Q197.34375 69.525 198.73438 69.38438L198.73438 67.7125L199.98438 67.7125L199.98438 69.41563Q201.375 69.60313 202.15625 70.57188Q202.9375 71.525 202.9375 73.04063L200.67188 73.04063Q200.67188 72.10313 200.28125 71.65Q199.90625 71.18125 199.25 71.18125Q198.60938 71.18125 198.25 71.54063Q197.90625 71.9 197.90625 72.54063Q197.90625 73.13438 198.25 73.49375Q198.59375 73.85313 199.53125 74.22813Q200.46875 74.60313 201.0625 74.94688Q201.67188 75.275 202.07812 75.69688Q202.5 76.10313 202.71875 76.65Q202.9375 77.18125 202.9375 77.88438Q202.9375 79.2125 202.10938 80.04063Q201.28125 80.86875 199.82812 81.025L199.82812 82.5875L198.57812 82.5875L198.57812 81.04063Q196.98438 80.85313 196.09375 79.9Q195.21875 78.93125 195.21875 77.32188L197.48438 77.32188Q197.48438 78.25938 197.92188 78.75938Q198.35938 79.24375 199.1875 79.24375Q199.875 79.24375 200.26562 78.88438Q200.67188 78.525 200.67188 77.9ZM209.76562 80.9L207.5 80.9L207.5 72.19688L204.8125 73.025L204.8125 71.19688L209.51562 69.50938L209.76562 69.50938L209.76562 80.9ZM213.95312 83.75938L212.78125 83.13438L213.0625 82.63438Q213.57812 81.68125 213.59375 80.72813L213.59375 78.97813L215.5 78.97813L215.5 80.54063Q215.48438 81.41563 215.04688 82.29063Q214.625 83.18125 213.95312 83.75938ZM225.01562 70.79063L220.60938 80.9L218.23438 80.9L222.64062 71.35313L216.98438 71.35313L216.98438 69.525L225.01562 69.525L225.01562 70.79063ZM234.01562 70.79063L229.60938 80.9L227.23438 80.9L231.64062 71.35313L225.98438 71.35313L225.98438 69.525L234.01562 69.525L234.01562 70.79063ZM242.6875 72.54063Q242.6875 73.36875 242.26562 74.00938Q241.85938 74.65 241.14062 75.04063Q241.96875 75.43125 242.45312 76.13438Q242.9375 76.8375 242.9375 77.775Q242.9375 79.29063 241.90625 80.18125Q240.875 81.05625 239.09375 81.05625Q237.32812 81.05625 236.28125 80.18125Q235.25 79.29063 235.25 77.775Q235.25 76.8375 235.73438 76.13438Q236.21875 75.43125 237.03125 75.04063Q236.3125 74.65 235.89062 74.00938Q235.48438 73.36875 235.48438 72.54063Q235.48438 71.0875 236.45312 70.22813Q237.42188 69.36875 239.09375 69.36875Q240.75 69.36875 241.71875 70.22813Q242.6875 71.07188 242.6875 72.54063ZM240.67188 77.61875Q240.67188 76.86875 240.23438 76.43125Q239.8125 75.97813 239.07812 75.97813Q238.35938 75.97813 237.92188 76.43125Q237.5 76.86875 237.5 77.61875Q237.5 78.3375 237.92188 78.79063Q238.34375 79.22813 239.09375 79.22813Q239.82812 79.22813 240.25 78.80625Q240.67188 78.36875 240.67188 77.61875ZM240.4375 72.65Q240.4375 71.99375 240.07812 71.5875Q239.73438 71.18125 239.09375 71.18125Q238.45312 71.18125 238.09375 71.57188Q237.75 71.9625 237.75 72.65Q237.75 73.3375 238.09375 73.75938Q238.45312 74.16563 239.09375 74.16563Q239.73438 74.16563 240.07812 73.75938Q240.4375 73.3375 240.4375 72.65Z" fill-rule="nonzero"/><path stroke="#db4437" stroke-width="3.0" stroke-linejoin="round" stroke-linecap="round" d="M447.17188 266.7393Q447.17188 266.09866 446.8125 265.72366Q446.46875 265.34866 445.60938 265.03616Q444.76562 264.70804 444.14062 264.39554Q443.53125 264.0674 443.07812 263.66116Q442.64062 263.2549 442.39062 262.70804Q442.15625 262.14554 442.15625 261.3799Q442.15625 260.0518 443.0 259.20804Q443.84375 258.3643 445.23438 258.22366L445.23438 256.5518L446.48438 256.5518L446.48438 258.2549Q447.875 258.4424 448.65625 259.41116Q449.4375 260.3643 449.4375 261.8799L447.17188 261.8799Q447.17188 260.9424 446.78125 260.4893Q446.40625 260.02054 445.75 260.02054Q445.10938 260.02054 444.75 260.3799Q444.40625 260.7393 444.40625 261.3799Q444.40625 261.97366 444.75 262.33304Q445.09375 262.6924 446.03125 263.0674Q446.96875 263.4424 447.5625 263.78616Q448.17188 264.1143 448.57812 264.53616Q449.0 264.9424 449.21875 265.4893Q449.4375 266.02054 449.4375 266.72366Q449.4375 268.0518 448.60938 268.8799Q447.78125 269.70804 446.32812 269.8643L446.32812 271.4268L445.07812 271.4268L445.07812 269.8799Q443.48438 269.6924 442.59375 268.7393Q441.71875 267.77054 441.71875 266.16116L443.98438 266.16116Q443.98438 267.09866 444.42188 267.59866Q444.85938 268.08304 445.6875 268.08304Q446.375 268.08304 446.76562 267.72366Q447.17188 267.3643 447.17188 266.7393ZM458.57812 269.7393L450.78125 269.7393L450.78125 268.1924L454.45312 264.27054Q455.21875 263.4424 455.57812 262.83304Q455.9375 262.20804 455.9375 261.64554Q455.9375 260.89554 455.54688 260.45804Q455.17188 260.02054 454.46875 260.02054Q453.70312 260.02054 453.25 260.5518Q452.8125 261.08304 452.8125 261.9424L450.54688 261.9424Q450.54688 260.89554 451.04688 260.03616Q451.54688 259.1768 452.45312 258.6924Q453.35938 258.20804 454.5 258.20804Q456.26562 258.20804 457.23438 259.0518Q458.20312 259.89554 458.20312 261.4268Q458.20312 262.27054 457.76562 263.14554Q457.32812 264.02054 456.26562 265.1924L453.6875 267.91116L458.57812 267.91116L458.57812 269.7393ZM467.1875 261.3799Q467.1875 262.20804 466.76562 262.84866Q466.35938 263.4893 465.64062 263.8799Q466.46875 264.27054 466.95312 264.97366Q467.4375 265.6768 467.4375 266.6143Q467.4375 268.1299 466.40625 269.02054Q465.375 269.89554 463.59375 269.89554Q461.82812 269.89554 460.78125 269.02054Q459.75 268.1299 459.75 266.6143Q459.75 265.6768 460.23438 264.97366Q460.71875 264.27054 461.53125 263.8799Q460.8125 263.4893 460.39062 262.84866Q459.98438 262.20804 459.98438 261.3799Q459.98438 259.9268 460.95312 259.0674Q461.92188 258.20804 463.59375 258.20804Q465.25 258.20804 466.21875 259.0674Q467.1875 259.91116 467.1875 261.3799ZM465.17188 266.45804Q465.17188 265.70804 464.73438 265.27054Q464.3125 264.8174 463.57812 264.8174Q462.85938 264.8174 462.42188 265.27054Q462.0 265.70804 462.0 266.45804Q462.0 267.1768 462.42188 267.6299Q462.84375 268.0674 463.59375 268.0674Q464.32812 268.0674 464.75 267.64554Q465.17188 267.20804 465.17188 266.45804ZM464.9375 261.4893Q464.9375 260.83304 464.57812 260.4268Q464.23438 260.02054 463.59375 260.02054Q462.95312 260.02054 462.59375 260.41116Q462.25 260.8018 462.25 261.4893Q462.25 262.1768 462.59375 262.59866Q462.95312 263.0049 463.59375 263.0049Q464.23438 263.0049 464.57812 262.59866Q464.9375 262.1768 464.9375 261.4893ZM474.90625 258.2393L474.90625 260.09866L474.6875 260.09866Q473.15625 260.1299 472.21875 260.91116Q471.28125 261.6768 471.09375 263.0518Q472.0 262.1299 473.39062 262.1299Q474.875 262.1299 475.75 263.1924Q476.625 264.2549 476.625 265.9893Q476.625 267.09866 476.14062 268.0049Q475.65625 268.89554 474.78125 269.39554Q473.90625 269.89554 472.79688 269.89554Q471.0 269.89554 469.89062 268.64554Q468.78125 267.39554 468.78125 265.3018L468.78125 264.4893Q468.78125 262.64554 469.48438 261.22366Q470.1875 259.8018 471.48438 259.03616Q472.79688 258.2549 474.53125 258.2393L474.90625 258.2393ZM472.70312 263.9424Q472.15625 263.9424 471.70312 264.22366Q471.26562 264.5049 471.04688 264.97366L471.04688 265.66116Q471.04688 266.8018 471.48438 267.4424Q471.9375 268.0674 472.75 268.0674Q473.46875 268.0674 473.92188 267.5049Q474.375 266.9268 474.375 266.0049Q474.375 265.08304 473.92188 264.52054Q473.46875 263.9424 472.70312 263.9424Z" fill-rule="nonzero"/><path fill="#ffffff" d="M447.17188 266.7393Q447.17188 266.09866 446.8125 265.72366Q446.46875 265.34866 445.60938 265.03616Q444.76562 264.70804 444.14062 264.39554Q443.53125 264.0674 443.07812 263.66116Q442.64062 263.2549 442.39062 262.70804Q442.15625 262.14554 442.15625 261.3799Q442.15625 260.0518 443.0 259.20804Q443.84375 258.3643 445.23438 258.22366L445.23438 256.5518L446.48438 256.5518L446.48438 258.2549Q447.875 258.4424 448.65625 259.41116Q449.4375 260.3643 449.4375 261.8799L447.17188 261.8799Q447.17188 260.9424 446.78125 260.4893Q446.40625 260.02054 445.75 260.02054Q445.10938 260.02054 444.75 260.3799Q444.40625 260.7393 444.40625 261.3799Q444.40625 261.97366 444.75 262.33304Q445.09375 262.6924 446.03125 263.0674Q446.96875 263.4424 447.5625 263.78616Q448.17188 264.1143 448.57812 264.53616Q449.0 264.9424 449.21875 265.4893Q449.4375 266.02054 449.4375 266.72366Q449.4375 268.0518 448.60938 268.8799Q447.78125 269.70804 446.32812 269.8643L446.32812 271.4268L445.07812 271.4268L445.07812 269.8799Q443.48438 269.6924 442.59375 268.7393Q441.71875 267.77054 441.71875 266.16116L443.98438 266.16116Q443.98438 267.09866 444.42188 267.59866Q444.85938 268.08304 445.6875 268.08304Q446.375 268.08304 446.76562 267.72366Q447.17188 267.3643 447.17188 266.7393ZM458.57812 269.7393L450.78125 269.7393L450.78125 268.1924L454.45312 264.27054Q455.21875 263.4424 455.57812 262.83304Q455.9375 262.20804 455.9375 261.64554Q455.9375 260.89554 455.54688 260.45804Q455.17188 260.02054 454.46875 260.02054Q453.70312 260.02054 453.25 260.5518Q452.8125 261.08304 452.8125 261.9424L450.54688 261.9424Q450.54688 260.89554 451.04688 260.03616Q451.54688 259.1768 452.45312 258.6924Q453.35938 258.20804 454.5 258.20804Q456.26562 258.20804 457.23438 259.0518Q458.20312 259.89554 458.20312 261.4268Q458.20312 262.27054 457.76562 263.14554Q457.32812 264.02054 456.26562 265.1924L453.6875 267.91116L458.57812 267.91116L458.57812 269.7393ZM467.1875 261.3799Q467.1875 262.20804 466.76562 262.84866Q466.35938 263.4893 465.64062 263.8799Q466.46875 264.27054 466.95312 264.97366Q467.4375 265.6768 467.4375 266.6143Q467.4375 268.1299 466.40625 269.02054Q465.375 269.89554 463.59375 269.89554Q461.82812 269.89554 460.78125 269.02054Q459.75 268.1299 459.75 266.6143Q459.75 265.6768 460.23438 264.97366Q460.71875 264.27054 461.53125 263.8799Q460.8125 263.4893 460.39062 262.84866Q459.98438 262.20804 459.98438 261.3799Q459.98438 259.9268 460.95312 259.0674Q461.92188 258.20804 463.59375 258.20804Q465.25 258.20804 466.21875 259.0674Q467.1875 259.91116 467.1875 261.3799ZM465.17188 266.45804Q465.17188 265.70804 464.73438 265.27054Q464.3125 264.8174 463.57812 264.8174Q462.85938 264.8174 462.42188 265.27054Q462.0 265.70804 462.0 266.45804Q462.0 267.1768 462.42188 267.6299Q462.84375 268.0674 463.59375 268.0674Q464.32812 268.0674 464.75 267.64554Q465.17188 267.20804 465.17188 266.45804ZM464.9375 261.4893Q464.9375 260.83304 464.57812 260.4268Q464.23438 260.02054 463.59375 260.02054Q462.95312 260.02054 462.59375 260.41116Q462.25 260.8018 462.25 261.4893Q462.25 262.1768 462.59375 262.59866Q462.95312 263.0049 463.59375 263.0049Q464.23438 263.0049 464.57812 262.59866Q464.9375 262.1768 464.9375 261.4893ZM474.90625 258.2393L474.90625 260.09866L474.6875 260.09866Q473.15625 260.1299 472.21875 260.91116Q471.28125 261.6768 471.09375 263.0518Q472.0 262.1299 473.39062 262.1299Q474.875 262.1299 475.75 263.1924Q476.625 264.2549 476.625 265.9893Q476.625 267.09866 476.14062 268.0049Q475.65625 268.89554 474.78125 269.39554Q473.90625 269.89554 472.79688 269.89554Q471.0 269.89554 469.89062 268.64554Q468.78125 267.39554 468.78125 265.3018L468.78125 264.4893Q468.78125 262.64554 469.48438 261.22366Q470.1875 259.8018 471.48438 259.03616Q472.79688 258.2549 474.53125 258.2393L474.90625 258.2393ZM472.70312 263.9424Q472.15625 263.9424 471.70312 264.22366Q471.26562 264.5049 471.04688 264.97366L471.04688 265.66116Q471.04688 266.8018 471.48438 267.4424Q471.9375 268.0674 472.75 268.0674Q473.46875 268.0674 473.92188 267.5049Q474.375 266.9268 474.375 266.0049Q474.375 265.08304 473.92188 264.52054Q473.46875 263.9424 472.70312 263.9424Z" fill-rule="nonzero"/><path fill="#757575" d="M151.60904 300.1875L147.67154 300.1875L147.67154 302.85938L152.29654 302.85938L152.29654 304.5L145.62466 304.5L145.62466 294.54688L152.28091 294.54688L152.28091 296.20312L147.67154 296.20312L147.67154 298.57812L151.60904 298.57812L151.60904 300.1875ZM155.31216 297.10938L155.37466 297.95312Q156.17154 296.96875 157.49966 296.96875Q158.67154 296.96875 159.24966 297.65625Q159.82779 298.34375 159.84341 299.71875L159.84341 304.5L157.85904 304.5L157.85904 299.76562Q157.85904 299.14062 157.57779 298.85938Q157.31216 298.57812 156.67154 298.57812Q155.84341 298.57812 155.42154 299.28125L155.42154 304.5L153.45279 304.5L153.45279 297.10938L155.31216 297.10938ZM163.85904 295.28125L163.85904 297.10938L165.12466 297.10938L165.12466 298.54688L163.85904 298.54688L163.85904 302.25Q163.85904 302.65625 164.01529 302.84375Q164.17154 303.01562 164.62466 303.01562Q164.95279 303.01562 165.20279 302.96875L165.20279 304.45312Q164.62466 304.64062 163.99966 304.64062Q161.92154 304.64062 161.89029 302.53125L161.89029 298.54688L160.79654 298.54688L160.79654 297.10938L161.89029 297.10938L161.89029 295.28125L163.85904 295.28125ZM170.65591 298.95312Q170.24966 298.90625 169.93716 298.90625Q168.81216 298.90625 168.46841 299.65625L168.46841 304.5L166.49966 304.5L166.49966 297.10938L168.35904 297.10938L168.42154 297.98438Q169.01529 296.96875 170.06216 296.96875Q170.39029 296.96875 170.67154 297.0625L170.65591 298.95312ZM174.24966 301.70312L175.62466 297.10938L177.73404 297.10938L174.76529 305.65625L174.60904 306.03125Q173.93716 307.48438 172.42154 307.48438Q171.98404 307.48438 171.54654 307.35938L171.54654 305.85938L171.84341 305.875Q172.40591 305.875 172.67154 305.70312Q172.95279 305.53125 173.10904 305.125L173.34341 304.51562L170.74966 297.10938L172.87466 297.10938L174.24966 301.70312ZM183.67154 302.85938L188.03091 302.85938L188.03091 304.5L181.62466 304.5L181.62466 294.54688L183.67154 294.54688L183.67154 302.85938ZM192.89029 304.64062Q191.26529 304.64062 190.24966 303.64062Q189.23404 302.64062 189.23404 300.98438L189.23404 300.78125Q189.23404 299.67188 189.65591 298.79688Q190.09341 297.92188 190.87466 297.45312Q191.67154 296.96875 192.67154 296.96875Q194.20279 296.96875 195.06216 297.92188Q195.93716 298.875 195.93716 300.64062L195.93716 301.4375L191.23404 301.4375Q191.32779 302.17188 191.81216 302.60938Q192.29654 303.04688 193.03091 303.04688Q194.17154 303.04688 194.81216 302.21875L195.78091 303.29688Q195.34341 303.9375 194.57779 304.29688Q193.82779 304.64062 192.89029 304.64062ZM192.67154 298.5625Q192.07779 298.5625 191.71841 298.96875Q191.35904 299.35938 191.24966 300.09375L193.99966 300.09375L193.99966 299.9375Q193.98404 299.28125 193.64029 298.92188Q193.29654 298.5625 192.67154 298.5625ZM200.26529 302.09375L201.64029 297.10938L203.70279 297.10938L201.20279 304.5L199.31216 304.5L196.82779 297.10938L198.89029 297.10938L200.26529 302.09375ZM207.89029 304.64062Q206.26529 304.64062 205.24966 303.64062Q204.23404 302.64062 204.23404 300.98438L204.23404 300.78125Q204.23404 299.67188 204.65591 298.79688Q205.09341 297.92188 205.87466 297.45312Q206.67154 296.96875 207.67154 296.96875Q209.20279 296.96875 210.06216 297.92188Q210.93716 298.875 210.93716 300.64062L210.93716 301.4375L206.23404 301.4375Q206.32779 302.17188 206.81216 302.60938Q207.29654 303.04688 208.03091 303.04688Q209.17154 303.04688 209.81216 302.21875L210.78091 303.29688Q210.34341 303.9375 209.57779 304.29688Q208.82779 304.64062 207.89029 304.64062ZM207.67154 298.5625Q207.07779 298.5625 206.71841 298.96875Q206.35904 299.35938 206.24966 300.09375L208.99966 300.09375L208.99966 299.9375Q208.98404 299.28125 208.64029 298.92188Q208.29654 298.5625 207.67154 298.5625ZM214.57779 304.5L212.59341 304.5L212.59341 294.0L214.57779 294.0L214.57779 304.5Z" fill-rule="nonzero"/><path fill="#757575" d="M387.14096 300.1875L383.20346 300.1875L383.20346 302.85938L387.82846 302.85938L387.82846 304.5L381.1566 304.5L381.1566 294.54688L387.81284 294.54688L387.81284 296.20312L383.20346 296.20312L383.20346 298.57812L387.14096 298.57812L387.14096 300.1875ZM391.8441 299.3125L393.07846 297.10938L395.20346 297.10938L393.0941 300.71875L395.2816 304.5L393.1722 304.5L391.8441 302.17188L390.5316 304.5L388.4066 304.5L390.6097 300.71875L388.50034 297.10938L390.62534 297.10938L391.8441 299.3125ZM402.68784 300.875Q402.68784 302.57812 401.9066 303.60938Q401.12534 304.64062 399.81284 304.64062Q398.68784 304.64062 398.00034 303.85938L398.00034 307.34375L396.0316 307.34375L396.0316 297.10938L397.8597 297.10938L397.9222 297.82812Q398.64096 296.96875 399.7972 296.96875Q401.1722 296.96875 401.9222 297.98438Q402.68784 298.98438 402.68784 300.76562L402.68784 300.875ZM400.70346 300.71875Q400.70346 299.6875 400.32846 299.14062Q399.9691 298.57812 399.2816 298.57812Q398.3441 298.57812 398.00034 299.28125L398.00034 302.3125Q398.3597 303.04688 399.2972 303.04688Q400.70346 303.04688 400.70346 300.71875ZM407.4222 304.64062Q405.7972 304.64062 404.7816 303.64062Q403.76596 302.64062 403.76596 300.98438L403.76596 300.78125Q403.76596 299.67188 404.18784 298.79688Q404.62534 297.92188 405.4066 297.45312Q406.20346 296.96875 407.20346 296.96875Q408.7347 296.96875 409.5941 297.92188Q410.4691 298.875 410.4691 300.64062L410.4691 301.4375L405.76596 301.4375Q405.8597 302.17188 406.3441 302.60938Q406.82846 303.04688 407.56284 303.04688Q408.70346 303.04688 409.3441 302.21875L410.31284 303.29688Q409.87534 303.9375 409.1097 304.29688Q408.3597 304.64062 407.4222 304.64062ZM407.20346 298.5625Q406.6097 298.5625 406.25034 298.96875Q405.89096 299.35938 405.7816 300.09375L408.5316 300.09375L408.5316 299.9375Q408.51596 299.28125 408.1722 298.92188Q407.82846 298.5625 407.20346 298.5625ZM416.18784 298.95312Q415.7816 298.90625 415.4691 298.90625Q414.3441 298.90625 414.00034 299.65625L414.00034 304.5L412.0316 304.5L412.0316 297.10938L413.89096 297.10938L413.95346 297.98438Q414.5472 296.96875 415.5941 296.96875Q415.9222 296.96875 416.20346 297.0625L416.18784 298.95312ZM419.1097 304.5L417.12534 304.5L417.12534 297.10938L419.1097 297.10938L419.1097 304.5ZM417.01596 295.1875Q417.01596 294.75 417.31284 294.46875Q417.6097 294.17188 418.12534 294.17188Q418.62534 294.17188 418.9222 294.46875Q419.2191 294.75 419.2191 295.1875Q419.2191 295.64062 418.9222 295.9375Q418.62534 296.21875 418.12534 296.21875Q417.62534 296.21875 417.31284 295.9375Q417.01596 295.64062 417.01596 295.1875ZM424.4222 304.64062Q422.7972 304.64062 421.7816 303.64062Q420.76596 302.64062 420.76596 300.98438L420.76596 300.78125Q420.76596 299.67188 421.18784 298.79688Q421.62534 297.92188 422.4066 297.45312Q423.20346 296.96875 424.20346 296.96875Q425.7347 296.96875 426.5941 297.92188Q427.4691 298.875 427.4691 300.64062L427.4691 301.4375L422.76596 301.4375Q422.8597 302.17188 423.3441 302.60938Q423.82846 303.04688 424.56284 303.04688Q425.70346 303.04688 426.3441 302.21875L427.31284 303.29688Q426.87534 303.9375 426.1097 304.29688Q425.3597 304.64062 424.4222 304.64062ZM424.20346 298.5625Q423.6097 298.5625 423.25034 298.96875Q422.89096 299.35938 422.7816 300.09375L425.5316 300.09375L425.5316 299.9375Q425.51596 299.28125 425.1722 298.92188Q424.82846 298.5625 424.20346 298.5625ZM430.8441 297.10938L430.9066 297.95312Q431.70346 296.96875 433.0316 296.96875Q434.20346 296.96875 434.7816 297.65625Q435.3597 298.34375 435.37534 299.71875L435.37534 304.5L433.39096 304.5L433.39096 299.76562Q433.39096 299.14062 433.1097 298.85938Q432.8441 298.57812 432.20346 298.57812Q431.37534 298.57812 430.95346 299.28125L430.95346 304.5L428.9847 304.5L428.9847 297.10938L430.8441 297.10938ZM440.0941 303.04688Q440.64096 303.04688 440.9847 302.75Q441.32846 302.4375 441.3441 301.9375L443.20346 301.9375Q443.18784 302.6875 442.7816 303.32812Q442.39096 303.95312 441.68784 304.29688Q440.9847 304.64062 440.14096 304.64062Q438.5472 304.64062 437.62534 303.64062Q436.7191 302.625 436.7191 300.84375L436.7191 300.71875Q436.7191 299.0 437.62534 297.98438Q438.5316 296.96875 440.12534 296.96875Q441.51596 296.96875 442.3441 297.76562Q443.18784 298.54688 443.20346 299.85938L441.3441 299.85938Q441.32846 299.28125 440.9847 298.92188Q440.64096 298.5625 440.0941 298.5625Q439.39096 298.5625 439.0316 299.07812Q438.68784 299.57812 438.68784 300.70312L438.68784 300.90625Q438.68784 302.04688 439.0316 302.54688Q439.39096 303.04688 440.0941 303.04688ZM447.4222 304.64062Q445.7972 304.64062 444.7816 303.64062Q443.76596 302.64062 443.76596 300.98438L443.76596 300.78125Q443.76596 299.67188 444.18784 298.79688Q444.62534 297.92188 445.4066 297.45312Q446.20346 296.96875 447.20346 296.96875Q448.7347 296.96875 449.5941 297.92188Q450.4691 298.875 450.4691 300.64062L450.4691 301.4375L445.76596 301.4375Q445.8597 302.17188 446.3441 302.60938Q446.82846 303.04688 447.56284 303.04688Q448.70346 303.04688 449.3441 302.21875L450.31284 303.29688Q449.87534 303.9375 449.1097 304.29688Q448.3597 304.64062 447.4222 304.64062ZM447.20346 298.5625Q446.6097 298.5625 446.25034 298.96875Q445.89096 299.35938 445.7816 300.09375L448.5316 300.09375L448.5316 299.9375Q448.51596 299.28125 448.1722 298.92188Q447.82846 298.5625 447.20346 298.5625ZM451.7191 300.75Q451.7191 299.01562 452.4847 298.0Q453.26596 296.96875 454.6097 296.96875Q455.70346 296.96875 456.4066 297.76562L456.4066 294.0L458.37534 294.0L458.37534 304.5L456.5941 304.5L456.50034 303.71875Q455.76596 304.64062 454.6097 304.64062Q453.2972 304.64062 452.50034 303.60938Q451.7191 302.57812 451.7191 300.75ZM453.68784 300.89062Q453.68784 301.92188 454.0472 302.48438Q454.4222 303.03125 455.1097 303.03125Q456.0316 303.03125 456.4066 302.26562L456.4066 299.34375Q456.0316 298.57812 455.12534 298.57812Q453.68784 298.57812 453.68784 300.89062Z" fill-rule="nonzero"/><path fill="#666666" d="M146.5 335.50272C146.5 334.95044 146.94771 334.50272 147.5 334.50272L157.5 334.50272C158.05229 334.50272 158.5 334.95044 158.5 335.50272L158.5 345.50272C158.5 346.055 158.05229 346.50272 157.5 346.50272L147.5 346.50272C146.94771 346.50272 146.5 346.055 146.5 345.50272Z" fill-rule="nonzero"/><path fill="#757575" d="M174.875 336.70584L171.82812 336.70584L171.82812 345.00272L169.78125 345.00272L169.78125 336.70584L166.78125 336.70584L166.78125 335.0496L174.875 335.0496L174.875 336.70584ZM178.34375 345.00272L176.35938 345.00272L176.35938 337.6121L178.34375 337.6121L178.34375 345.00272ZM176.25 335.69022Q176.25 335.25272 176.54688 334.97147Q176.84375 334.6746 177.35938 334.6746Q177.85938 334.6746 178.15625 334.97147Q178.45312 335.25272 178.45312 335.69022Q178.45312 336.14334 178.15625 336.44022Q177.85938 336.72147 177.35938 336.72147Q176.85938 336.72147 176.54688 336.44022Q176.25 336.14334 176.25 335.69022ZM182.10938 337.6121L182.17188 338.44022Q182.95312 337.47147 184.29688 337.47147Q185.73438 337.47147 186.26562 338.59647Q187.04688 337.47147 188.48438 337.47147Q189.6875 337.47147 190.26562 338.1746Q190.85938 338.87772 190.85938 340.28397L190.85938 345.00272L188.875 345.00272L188.875 340.28397Q188.875 339.65897 188.625 339.37772Q188.39062 339.08084 187.76562 339.08084Q186.875 339.08084 186.53125 339.9246L186.54688 345.00272L184.5625 345.00272L184.5625 340.2996Q184.5625 339.64334 184.3125 339.3621Q184.0625 339.08084 183.45312 339.08084Q182.60938 339.08084 182.23438 339.76834L182.23438 345.00272L180.26562 345.00272L180.26562 337.6121L182.10938 337.6121ZM195.65625 345.14334Q194.03125 345.14334 193.01562 344.14334Q192.0 343.14334 192.0 341.4871L192.0 341.28397Q192.0 340.1746 192.42188 339.2996Q192.85938 338.4246 193.64062 337.95584Q194.4375 337.47147 195.4375 337.47147Q196.96875 337.47147 197.82812 338.4246Q198.70312 339.37772 198.70312 341.14334L198.70312 341.94022L194.0 341.94022Q194.09375 342.6746 194.57812 343.1121Q195.0625 343.5496 195.79688 343.5496Q196.9375 343.5496 197.57812 342.72147L198.54688 343.7996Q198.10938 344.44022 197.34375 344.7996Q196.59375 345.14334 195.65625 345.14334ZM195.4375 339.06522Q194.84375 339.06522 194.48438 339.47147Q194.125 339.8621 194.01562 340.59647L196.76562 340.59647L196.76562 340.44022Q196.75 339.78397 196.40625 339.4246Q196.0625 339.06522 195.4375 339.06522ZM205.34375 345.00272L203.35938 345.00272L203.35938 337.6121L205.34375 337.6121L205.34375 345.00272ZM203.25 335.69022Q203.25 335.25272 203.54688 334.97147Q203.84375 334.6746 204.35938 334.6746Q204.85938 334.6746 205.15625 334.97147Q205.45312 335.25272 205.45312 335.69022Q205.45312 336.14334 205.15625 336.44022Q204.85938 336.72147 204.35938 336.72147Q203.85938 336.72147 203.54688 336.44022Q203.25 336.14334 203.25 335.69022ZM209.07812 337.6121L209.14062 338.45584Q209.9375 337.47147 211.26562 337.47147Q212.4375 337.47147 213.01562 338.15897Q213.59375 338.84647 213.60938 340.22147L213.60938 345.00272L211.625 345.00272L211.625 340.26834Q211.625 339.64334 211.34375 339.3621Q211.07812 339.08084 210.4375 339.08084Q209.60938 339.08084 209.1875 339.78397L209.1875 345.00272L207.21875 345.00272L207.21875 337.6121L209.07812 337.6121ZM223.54688 342.39334Q223.54688 341.81522 223.14062 341.50272Q222.73438 341.19022 221.65625 340.84647Q220.59375 340.50272 219.96875 340.15897Q218.28125 339.25272 218.28125 337.69022Q218.28125 336.89334 218.73438 336.26834Q219.1875 335.62772 220.03125 335.26834Q220.89062 334.90897 221.95312 334.90897Q223.01562 334.90897 223.84375 335.2996Q224.6875 335.69022 225.14062 336.39334Q225.60938 337.09647 225.60938 337.9871L223.5625 337.9871Q223.5625 337.2996 223.125 336.9246Q222.70312 336.5496 221.92188 336.5496Q221.17188 336.5496 220.75 336.8621Q220.32812 337.1746 220.32812 337.70584Q220.32812 338.19022 220.8125 338.51834Q221.3125 338.84647 222.26562 339.12772Q224.01562 339.65897 224.8125 340.44022Q225.60938 341.22147 225.60938 342.37772Q225.60938 343.6746 224.625 344.40897Q223.65625 345.14334 222.0 345.14334Q220.84375 345.14334 219.90625 344.72147Q218.96875 344.2996 218.46875 343.56522Q217.96875 342.83084 217.96875 341.87772L220.03125 341.87772Q220.03125 343.51834 222.0 343.51834Q222.73438 343.51834 223.14062 343.22147Q223.54688 342.9246 223.54688 342.39334ZM230.65625 345.14334Q229.03125 345.14334 228.01562 344.14334Q227.0 343.14334 227.0 341.4871L227.0 341.28397Q227.0 340.1746 227.42188 339.2996Q227.85938 338.4246 228.64062 337.95584Q229.4375 337.47147 230.4375 337.47147Q231.96875 337.47147 232.82812 338.4246Q233.70312 339.37772 233.70312 341.14334L233.70312 341.94022L229.0 341.94022Q229.09375 342.6746 229.57812 343.1121Q230.0625 343.5496 230.79688 343.5496Q231.9375 343.5496 232.57812 342.72147L233.54688 343.7996Q233.10938 344.44022 232.34375 344.7996Q231.59375 345.14334 230.65625 345.14334ZM230.4375 339.06522Q229.84375 339.06522 229.48438 339.47147Q229.125 339.8621 229.01562 340.59647L231.76562 340.59647L231.76562 340.44022Q231.75 339.78397 231.40625 339.4246Q231.0625 339.06522 230.4375 339.06522ZM239.42188 339.45584Q239.01562 339.40897 238.70312 339.40897Q237.57812 339.40897 237.23438 340.15897L237.23438 345.00272L235.26562 345.00272L235.26562 337.6121L237.125 337.6121L237.1875 338.4871Q237.78125 337.47147 238.82812 337.47147Q239.15625 337.47147 239.4375 337.56522L239.42188 339.45584ZM243.03125 342.59647L244.40625 337.6121L246.46875 337.6121L243.96875 345.00272L242.07812 345.00272L239.59375 337.6121L241.65625 337.6121L243.03125 342.59647ZM249.34375 345.00272L247.35938 345.00272L247.35938 337.6121L249.34375 337.6121L249.34375 345.00272ZM247.25 335.69022Q247.25 335.25272 247.54688 334.97147Q247.84375 334.6746 248.35938 334.6746Q248.85938 334.6746 249.15625 334.97147Q249.45312 335.25272 249.45312 335.69022Q249.45312 336.14334 249.15625 336.44022Q248.85938 336.72147 248.35938 336.72147Q247.85938 336.72147 247.54688 336.44022Q247.25 336.14334 247.25 335.69022ZM254.32812 343.5496Q254.875 343.5496 255.21875 343.25272Q255.5625 342.94022 255.57812 342.44022L257.4375 342.44022Q257.42188 343.19022 257.01562 343.83084Q256.625 344.45584 255.92188 344.7996Q255.21875 345.14334 254.375 345.14334Q252.78125 345.14334 251.85938 344.14334Q250.95312 343.12772 250.95312 341.34647L250.95312 341.22147Q250.95312 339.50272 251.85938 338.4871Q252.76562 337.47147 254.35938 337.47147Q255.75 337.47147 256.57812 338.26834Q257.42188 339.0496 257.4375 340.3621L255.57812 340.3621Q255.5625 339.78397 255.21875 339.4246Q254.875 339.06522 254.32812 339.06522Q253.625 339.06522 253.26562 339.58084Q252.92188 340.08084 252.92188 341.20584L252.92188 341.40897Q252.92188 342.5496 253.26562 343.0496Q253.625 343.5496 254.32812 343.5496ZM261.65625 345.14334Q260.03125 345.14334 259.01562 344.14334Q258.0 343.14334 258.0 341.4871L258.0 341.28397Q258.0 340.1746 258.42188 339.2996Q258.85938 338.4246 259.64062 337.95584Q260.4375 337.47147 261.4375 337.47147Q262.96875 337.47147 263.82812 338.4246Q264.70312 339.37772 264.70312 341.14334L264.70312 341.94022L260.0 341.94022Q260.09375 342.6746 260.57812 343.1121Q261.0625 343.5496 261.79688 343.5496Q262.9375 343.5496 263.57812 342.72147L264.54688 343.7996Q264.10938 344.44022 263.34375 344.7996Q262.59375 345.14334 261.65625 345.14334ZM261.4375 339.06522Q260.84375 339.06522 260.48438 339.47147Q260.125 339.8621 260.01562 340.59647L262.76562 340.59647L262.76562 340.44022Q262.75 339.78397 262.40625 339.4246Q262.0625 339.06522 261.4375 339.06522Z" fill-rule="nonzero"/><path fill="#db4437" d="M281.5 335.50272C281.5 334.95044 281.94772 334.50272 282.5 334.50272L292.5 334.50272C293.05228 334.50272 293.5 334.95044 293.5 335.50272L293.5 345.50272C293.5 346.055 293.05228 346.50272 292.5 346.50272L282.5 346.50272C281.94772 346.50272 281.5 346.055 281.5 345.50272Z" fill-rule="nonzero"/><path fill="#757575" d="M310.20312 341.69022Q310.09375 343.2996 309.01562 344.22147Q307.95312 345.14334 306.20312 345.14334Q304.28125 345.14334 303.1875 343.8621Q302.09375 342.56522 302.09375 340.31522L302.09375 339.70584Q302.09375 338.26834 302.59375 337.1746Q303.09375 336.08084 304.03125 335.50272Q304.98438 334.90897 306.21875 334.90897Q307.95312 334.90897 309.0 335.83084Q310.04688 336.75272 310.21875 338.4246L308.17188 338.4246Q308.09375 337.45584 307.625 337.03397Q307.17188 336.59647 306.21875 336.59647Q305.20312 336.59647 304.6875 337.33084Q304.1875 338.06522 304.17188 339.6121L304.17188 340.3621Q304.17188 341.97147 304.65625 342.72147Q305.14062 343.47147 306.20312 343.47147Q307.14062 343.47147 307.60938 343.03397Q308.07812 342.59647 308.15625 341.69022L310.20312 341.69022ZM310.95312 341.2371Q310.95312 340.12772 311.375 339.26834Q311.79688 338.40897 312.59375 337.94022Q313.39062 337.47147 314.4375 337.47147Q315.9375 337.47147 316.875 338.39334Q317.82812 339.2996 317.9375 340.87772L317.95312 341.37772Q317.95312 343.08084 317.0 344.1121Q316.0625 345.14334 314.45312 345.14334Q312.85938 345.14334 311.90625 344.1121Q310.95312 343.08084 310.95312 341.33084L310.95312 341.2371ZM312.92188 341.37772Q312.92188 342.4246 313.3125 342.9871Q313.71875 343.5496 314.45312 343.5496Q315.17188 343.5496 315.57812 343.00272Q315.98438 342.44022 315.98438 341.2371Q315.98438 340.20584 315.57812 339.64334Q315.17188 339.06522 314.4375 339.06522Q313.71875 339.06522 313.3125 339.62772Q312.92188 340.19022 312.92188 341.37772ZM323.26562 342.95584Q323.26562 342.59647 322.90625 342.39334Q322.54688 342.1746 321.75 342.01834Q319.10938 341.45584 319.10938 339.76834Q319.10938 338.78397 319.92188 338.12772Q320.75 337.47147 322.0625 337.47147Q323.48438 337.47147 324.32812 338.14334Q325.17188 338.7996 325.17188 339.8621L323.1875 339.8621Q323.1875 339.4246 322.90625 339.15897Q322.64062 338.87772 322.0625 338.87772Q321.5625 338.87772 321.28125 339.1121Q321.01562 339.33084 321.01562 339.6746Q321.01562 340.00272 321.32812 340.20584Q321.64062 340.40897 322.375 340.56522Q323.10938 340.70584 323.625 340.89334Q325.1875 341.45584 325.1875 342.87772Q325.1875 343.89334 324.3125 344.51834Q323.45312 345.14334 322.07812 345.14334Q321.14062 345.14334 320.42188 344.81522Q319.70312 344.47147 319.29688 343.89334Q318.89062 343.31522 318.89062 342.64334L320.75 342.64334Q320.78125 343.1746 321.14062 343.45584Q321.51562 343.7371 322.10938 343.7371Q322.6875 343.7371 322.96875 343.51834Q323.26562 343.2996 323.26562 342.95584ZM328.625 335.78397L328.625 337.6121L329.89062 337.6121L329.89062 339.0496L328.625 339.0496L328.625 342.75272Q328.625 343.15897 328.78125 343.34647Q328.9375 343.51834 329.39062 343.51834Q329.71875 343.51834 329.96875 343.47147L329.96875 344.95584Q329.39062 345.14334 328.76562 345.14334Q326.6875 345.14334 326.65625 343.03397L326.65625 339.0496L325.5625 339.0496L325.5625 337.6121L326.65625 337.6121L326.65625 335.78397L328.625 335.78397ZM340.92188 341.37772Q340.92188 343.08084 340.14062 344.1121Q339.35938 345.14334 338.04688 345.14334Q336.92188 345.14334 336.23438 344.3621L336.23438 347.84647L334.26562 347.84647L334.26562 337.6121L336.09375 337.6121L336.15625 338.33084Q336.875 337.47147 338.03125 337.47147Q339.40625 337.47147 340.15625 338.4871Q340.92188 339.4871 340.92188 341.26834L340.92188 341.37772ZM338.9375 341.22147Q338.9375 340.19022 338.5625 339.64334Q338.20312 339.08084 337.51562 339.08084Q336.57812 339.08084 336.23438 339.78397L336.23438 342.81522Q336.59375 343.5496 337.53125 343.5496Q338.9375 343.5496 338.9375 341.22147ZM342.875 345.8621L341.40625 345.8621L345.07812 335.0496L346.54688 335.0496L342.875 345.8621ZM350.0625 335.0496L352.625 342.26834L355.17188 335.0496L357.85938 335.0496L357.85938 345.00272L355.79688 345.00272L355.79688 342.28397L356.01562 337.58084L353.32812 345.00272L351.92188 345.00272L349.23438 337.59647L349.4375 342.28397L349.4375 345.00272L347.39062 345.00272L347.39062 335.0496L350.0625 335.0496ZM358.95312 341.2371Q358.95312 340.12772 359.375 339.26834Q359.79688 338.40897 360.59375 337.94022Q361.39062 337.47147 362.4375 337.47147Q363.9375 337.47147 364.875 338.39334Q365.82812 339.2996 365.9375 340.87772L365.95312 341.37772Q365.95312 343.08084 365.0 344.1121Q364.0625 345.14334 362.45312 345.14334Q360.85938 345.14334 359.90625 344.1121Q358.95312 343.08084 358.95312 341.33084L358.95312 341.2371ZM360.92188 341.37772Q360.92188 342.4246 361.3125 342.9871Q361.71875 343.5496 362.45312 343.5496Q363.17188 343.5496 363.57812 343.00272Q363.98438 342.44022 363.98438 341.2371Q363.98438 340.20584 363.57812 339.64334Q363.17188 339.06522 362.4375 339.06522Q361.71875 339.06522 361.3125 339.62772Q360.92188 340.19022 360.92188 341.37772ZM369.07812 337.6121L369.14062 338.45584Q369.9375 337.47147 371.26562 337.47147Q372.4375 337.47147 373.01562 338.15897Q373.59375 338.84647 373.60938 340.22147L373.60938 345.00272L371.625 345.00272L371.625 340.26834Q371.625 339.64334 371.34375 339.3621Q371.07812 339.08084 370.4375 339.08084Q369.60938 339.08084 369.1875 339.78397L369.1875 345.00272L367.21875 345.00272L367.21875 337.6121L369.07812 337.6121ZM377.625 335.78397L377.625 337.6121L378.89062 337.6121L378.89062 339.0496L377.625 339.0496L377.625 342.75272Q377.625 343.15897 377.78125 343.34647Q377.9375 343.51834 378.39062 343.51834Q378.71875 343.51834 378.96875 343.47147L378.96875 344.95584Q378.39062 345.14334 377.76562 345.14334Q375.6875 345.14334 375.65625 343.03397L375.65625 339.0496L374.5625 339.0496L374.5625 337.6121L375.65625 337.6121L375.65625 335.78397L377.625 335.78397ZM382.1875 338.40897Q382.96875 337.47147 384.15625 337.47147Q386.5625 337.47147 386.60938 340.26834L386.60938 345.00272L384.625 345.00272L384.625 340.31522Q384.625 339.69022 384.34375 339.39334Q384.07812 339.08084 383.4375 339.08084Q382.57812 339.08084 382.1875 339.75272L382.1875 345.00272L380.21875 345.00272L380.21875 334.50272L382.1875 334.50272L382.1875 338.40897ZM393.34375 345.00272L391.35938 345.00272L391.35938 337.6121L393.34375 337.6121L393.34375 345.00272ZM391.25 335.69022Q391.25 335.25272 391.54688 334.97147Q391.84375 334.6746 392.35938 334.6746Q392.85938 334.6746 393.15625 334.97147Q393.45312 335.25272 393.45312 335.69022Q393.45312 336.14334 393.15625 336.44022Q392.85938 336.72147 392.35938 336.72147Q391.85938 336.72147 391.54688 336.44022Q391.25 336.14334 391.25 335.69022ZM397.07812 337.6121L397.14062 338.45584Q397.9375 337.47147 399.26562 337.47147Q400.4375 337.47147 401.01562 338.15897Q401.59375 338.84647 401.60938 340.22147L401.60938 345.00272L399.625 345.00272L399.625 340.26834Q399.625 339.64334 399.34375 339.3621Q399.07812 339.08084 398.4375 339.08084Q397.60938 339.08084 397.1875 339.78397L397.1875 345.00272L395.21875 345.00272L395.21875 337.6121L397.07812 337.6121ZM411.54688 342.39334Q411.54688 341.81522 411.14062 341.50272Q410.73438 341.19022 409.65625 340.84647Q408.59375 340.50272 407.96875 340.15897Q406.28125 339.25272 406.28125 337.69022Q406.28125 336.89334 406.73438 336.26834Q407.1875 335.62772 408.03125 335.26834Q408.89062 334.90897 409.95312 334.90897Q411.01562 334.90897 411.84375 335.2996Q412.6875 335.69022 413.14062 336.39334Q413.60938 337.09647 413.60938 337.9871L411.5625 337.9871Q411.5625 337.2996 411.125 336.9246Q410.70312 336.5496 409.92188 336.5496Q409.17188 336.5496 408.75 336.8621Q408.32812 337.1746 408.32812 337.70584Q408.32812 338.19022 408.8125 338.51834Q409.3125 338.84647 410.26562 339.12772Q412.01562 339.65897 412.8125 340.44022Q413.60938 341.22147 413.60938 342.37772Q413.60938 343.6746 412.625 344.40897Q411.65625 345.14334 410.0 345.14334Q408.84375 345.14334 407.90625 344.72147Q406.96875 344.2996 406.46875 343.56522Q405.96875 342.83084 405.96875 341.87772L408.03125 341.87772Q408.03125 343.51834 410.0 343.51834Q410.73438 343.51834 411.14062 343.22147Q411.54688 342.9246 411.54688 342.39334ZM418.65625 345.14334Q417.03125 345.14334 416.01562 344.14334Q415.0 343.14334 415.0 341.4871L415.0 341.28397Q415.0 340.1746 415.42188 339.2996Q415.85938 338.4246 416.64062 337.95584Q417.4375 337.47147 418.4375 337.47147Q419.96875 337.47147 420.82812 338.4246Q421.70312 339.37772 421.70312 341.14334L421.70312 341.94022L417.0 341.94022Q417.09375 342.6746 417.57812 343.1121Q418.0625 343.5496 418.79688 343.5496Q419.9375 343.5496 420.57812 342.72147L421.54688 343.7996Q421.10938 344.44022 420.34375 344.7996Q419.59375 345.14334 418.65625 345.14334ZM418.4375 339.06522Q417.84375 339.06522 417.48438 339.47147Q417.125 339.8621 417.01562 340.59647L419.76562 340.59647L419.76562 340.44022Q419.75 339.78397 419.40625 339.4246Q419.0625 339.06522 418.4375 339.06522ZM427.42188 339.45584Q427.01562 339.40897 426.70312 339.40897Q425.57812 339.40897 425.23438 340.15897L425.23438 345.00272L423.26562 345.00272L423.26562 337.6121L425.125 337.6121L425.1875 338.4871Q425.78125 337.47147 426.82812 337.47147Q427.15625 337.47147 427.4375 337.56522L427.42188 339.45584ZM431.03125 342.59647L432.40625 337.6121L434.46875 337.6121L431.96875 345.00272L430.07812 345.00272L427.59375 337.6121L429.65625 337.6121L431.03125 342.59647ZM437.34375 345.00272L435.35938 345.00272L435.35938 337.6121L437.34375 337.6121L437.34375 345.00272ZM435.25 335.69022Q435.25 335.25272 435.54688 334.97147Q435.84375 334.6746 436.35938 334.6746Q436.85938 334.6746 437.15625 334.97147Q437.45312 335.25272 437.45312 335.69022Q437.45312 336.14334 437.15625 336.44022Q436.85938 336.72147 436.35938 336.72147Q435.85938 336.72147 435.54688 336.44022Q435.25 336.14334 435.25 335.69022ZM442.32812 343.5496Q442.875 343.5496 443.21875 343.25272Q443.5625 342.94022 443.57812 342.44022L445.4375 342.44022Q445.42188 343.19022 445.01562 343.83084Q444.625 344.45584 443.92188 344.7996Q443.21875 345.14334 442.375 345.14334Q440.78125 345.14334 439.85938 344.14334Q438.95312 343.12772 438.95312 341.34647L438.95312 341.22147Q438.95312 339.50272 439.85938 338.4871Q440.76562 337.47147 442.35938 337.47147Q443.75 337.47147 444.57812 338.26834Q445.42188 339.0496 445.4375 340.3621L443.57812 340.3621Q443.5625 339.78397 443.21875 339.4246Q442.875 339.06522 442.32812 339.06522Q441.625 339.06522 441.26562 339.58084Q440.92188 340.08084 440.92188 341.20584L440.92188 341.40897Q440.92188 342.5496 441.26562 343.0496Q441.625 343.5496 442.32812 343.5496ZM449.65625 345.14334Q448.03125 345.14334 447.01562 344.14334Q446.0 343.14334 446.0 341.4871L446.0 341.28397Q446.0 340.1746 446.42188 339.2996Q446.85938 338.4246 447.64062 337.95584Q448.4375 337.47147 449.4375 337.47147Q450.96875 337.47147 451.82812 338.4246Q452.70312 339.37772 452.70312 341.14334L452.70312 341.94022L448.0 341.94022Q448.09375 342.6746 448.57812 343.1121Q449.0625 343.5496 449.79688 343.5496Q450.9375 343.5496 451.57812 342.72147L452.54688 343.7996Q452.10938 344.44022 451.34375 344.7996Q450.59375 345.14334 449.65625 345.14334ZM449.4375 339.06522Q448.84375 339.06522 448.48438 339.47147Q448.125 339.8621 448.01562 340.59647L450.76562 340.59647L450.76562 340.44022Q450.75 339.78397 450.40625 339.4246Q450.0625 339.06522 449.4375 339.06522Z" fill-rule="nonzero"/><path fill="#757575" d="M31.128124 37.55L29.2375 37.55L29.2375 30.971874L22.08125 30.971874L22.08125 37.55L20.20625 37.55L20.20625 23.33125L22.08125 23.33125L22.08125 29.440624L29.2375 29.440624L29.2375 23.33125L31.128124 23.33125L31.128124 37.55ZM35.878124 37.55L34.08125 37.55L34.08125 26.9875L35.878124 26.9875L35.878124 37.55ZM33.925 24.175Q33.925 23.7375 34.190624 23.440624Q34.471874 23.128124 34.9875 23.128124Q35.51875 23.128124 35.784374 23.440624Q36.065624 23.7375 36.065624 24.175Q36.065624 24.6125 35.784374 24.909374Q35.51875 25.20625 34.9875 25.20625Q34.471874 25.20625 34.190624 24.909374Q33.925 24.6125 33.925 24.175ZM44.01875 28.596874Q43.6125 28.534374 43.14375 28.534374Q41.3625 28.534374 40.721874 30.05L40.721874 37.55L38.925 37.55L38.925 26.9875L40.675 26.9875L40.70625 28.20625Q41.596874 26.784374 43.221874 26.784374Q43.753124 26.784374 44.01875 26.925L44.01875 28.596874ZM47.878124 37.55L46.08125 37.55L46.08125 26.9875L47.878124 26.9875L47.878124 37.55ZM45.925 24.175Q45.925 23.7375 46.190624 23.440624Q46.471874 23.128124 46.9875 23.128124Q47.51875 23.128124 47.784374 23.440624Q48.065624 23.7375 48.065624 24.175Q48.065624 24.6125 47.784374 24.909374Q47.51875 25.20625 46.9875 25.20625Q46.471874 25.20625 46.190624 24.909374Q45.925 24.6125 45.925 24.175ZM52.628124 26.9875L52.690624 28.315624Q53.89375 26.784374 55.846874 26.784374Q59.20625 26.784374 59.221874 30.565624L59.221874 37.55L57.425 37.55L57.425 30.55Q57.409374 29.409374 56.89375 28.8625Q56.39375 28.315624 55.3 28.315624Q54.425 28.315624 53.753124 28.784374Q53.096874 29.253124 52.721874 30.01875L52.721874 37.55L50.925 37.55L50.925 26.9875L52.628124 26.9875ZM61.4875 32.175Q61.4875 29.70625 62.628124 28.253124Q63.76875 26.784374 65.65938 26.784374Q67.59688 26.784374 68.675 28.159374L68.76875 26.9875L70.40938 26.9875L70.40938 37.3Q70.40938 39.346874 69.19063 40.51875Q67.9875 41.70625 65.925 41.70625Q64.78438 41.70625 63.690624 41.221874Q62.596874 40.7375 62.01875 39.878124L62.95625 38.8Q64.12813 40.2375 65.8 40.2375Q67.12813 40.2375 67.8625 39.4875Q68.59688 38.753124 68.59688 37.409374L68.59688 36.4875Q67.51875 37.753124 65.64375 37.753124Q63.784374 37.753124 62.628124 36.253124Q61.4875 34.753124 61.4875 32.175ZM63.3 32.378124Q63.3 34.175 64.03438 35.190624Q64.76875 36.20625 66.08125 36.20625Q67.8 36.20625 68.59688 34.659374L68.59688 29.83125Q67.76875 28.315624 66.1125 28.315624Q64.78438 28.315624 64.03438 29.346874Q63.3 30.378124 63.3 32.378124ZM86.2375 30.971874L80.08125 30.971874L80.08125 36.01875L87.2375 36.01875L87.2375 37.55L78.20625 37.55L78.20625 23.33125L87.14375 23.33125L87.14375 24.878124L80.08125 24.878124L80.08125 29.440624L86.2375 29.440624L86.2375 30.971874ZM90.62813 26.9875L90.69063 28.315624Q91.89375 26.784374 93.84688 26.784374Q97.20625 26.784374 97.22188 30.565624L97.22188 37.55L95.425 37.55L95.425 30.55Q95.40938 29.409374 94.89375 28.8625Q94.39375 28.315624 93.3 28.315624Q92.425 28.315624 91.75313 28.784374Q91.09688 29.253124 90.72188 30.01875L90.72188 37.55L88.925 37.55L88.925 26.9875L90.62813 26.9875ZM102.3625 24.425L102.3625 26.9875L104.34688 26.9875L104.34688 28.378124L102.3625 28.378124L102.3625 34.925Q102.3625 35.565624 102.62813 35.89375Q102.89375 36.20625 103.53438 36.20625Q103.84688 36.20625 104.39375 36.08125L104.39375 37.55Q103.675 37.753124 103.00313 37.753124Q101.8 37.753124 101.175 37.01875Q100.56563 36.284374 100.56563 34.925L100.56563 28.378124L98.64375 28.378124L98.64375 26.9875L100.56563 26.9875L100.56563 24.425L102.3625 24.425ZM112.01875 28.596874Q111.6125 28.534374 111.14375 28.534374Q109.3625 28.534374 108.72188 30.05L108.72188 37.55L106.925 37.55L106.925 26.9875L108.675 26.9875L108.70625 28.20625Q109.59688 26.784374 111.22188 26.784374Q111.75313 26.784374 112.01875 26.925L112.01875 28.596874ZM117.37813 34.909374L119.83125 26.9875L121.76875 26.9875L117.51875 39.175Q116.53438 41.815624 114.39375 41.815624L114.05 41.784374L113.37813 41.659374L113.37813 40.190624L113.8625 40.2375Q114.78438 40.2375 115.28438 39.8625Q115.8 39.4875 116.12813 38.503124L116.53438 37.425L112.76875 26.9875L114.7375 26.9875L117.37813 34.909374ZM130.08125 36.01875L136.83125 36.01875L136.83125 37.55L128.20625 37.55L128.20625 23.33125L130.08125 23.33125L130.08125 36.01875ZM143.3 37.753124Q141.15938 37.753124 139.8 36.346874Q138.45625 34.925 138.45625 32.565624L138.45625 32.221874Q138.45625 30.659374 139.05 29.425Q139.65938 28.190624 140.7375 27.4875Q141.81563 26.784374 143.08125 26.784374Q145.14375 26.784374 146.28438 28.14375Q147.425 29.503124 147.425 32.034374L147.425 32.784374L140.26875 32.784374Q140.3 34.346874 141.175 35.315624Q142.05 36.26875 143.39375 36.26875Q144.3625 36.26875 145.01875 35.878124Q145.69063 35.4875 146.19063 34.846874L147.28438 35.70625Q145.95625 37.753124 143.3 37.753124ZM143.08125 28.26875Q141.9875 28.26875 141.2375 29.065624Q140.50313 29.8625 140.33125 31.3L145.6125 31.3L145.6125 31.159374Q145.53438 29.784374 144.8625 29.034374Q144.20625 28.26875 143.08125 28.26875ZM153.40938 35.096874L156.01875 26.9875L157.8625 26.9875L154.08125 37.55L152.70625 37.55L148.87813 26.9875L150.72188 26.9875L153.40938 35.096874ZM164.3 37.753124Q162.15938 37.753124 160.8 36.346874Q159.45625 34.925 159.45625 32.565624L159.45625 32.221874Q159.45625 30.659374 160.05 29.425Q160.65938 28.190624 161.7375 27.4875Q162.81563 26.784374 164.08125 26.784374Q166.14375 26.784374 167.28438 28.14375Q168.425 29.503124 168.425 32.034374L168.425 32.784374L161.26875 32.784374Q161.3 34.346874 162.175 35.315624Q163.05 36.26875 164.39375 36.26875Q165.3625 36.26875 166.01875 35.878124Q166.69063 35.4875 167.19063 34.846874L168.28438 35.70625Q166.95625 37.753124 164.3 37.753124ZM164.08125 28.26875Q162.9875 28.26875 162.2375 29.065624Q161.50313 29.8625 161.33125 31.3L166.6125 31.3L166.6125 31.159374Q166.53438 29.784374 165.8625 29.034374Q165.20625 28.26875 164.08125 28.26875ZM172.87813 37.55L171.08125 37.55L171.08125 22.55L172.87813 22.55L172.87813 37.55ZM184.40938 35.096874L187.01875 26.9875L188.8625 26.9875L185.08125 37.55L183.70625 37.55L179.87813 26.9875L181.72188 26.9875L184.40938 35.096874ZM197.06563 34.753124Q197.06563 34.01875 196.51875 33.6125Q195.97188 33.20625 194.59688 32.909374Q193.22188 32.6125 192.40938 32.20625Q191.6125 31.8 191.22188 31.2375Q190.84688 30.659374 190.84688 29.878124Q190.84688 28.58125 191.94063 27.690624Q193.03438 26.784374 194.75313 26.784374Q196.55 26.784374 197.65938 27.721874Q198.78438 28.64375 198.78438 30.08125L196.95625 30.08125Q196.95625 29.346874 196.33125 28.815624Q195.70625 28.26875 194.75313 28.26875Q193.75313 28.26875 193.19063 28.70625Q192.64375 29.128124 192.64375 29.83125Q192.64375 30.471874 193.15938 30.815624Q193.675 31.14375 195.03438 31.45625Q196.39375 31.753124 197.22188 32.175Q198.06563 32.58125 198.47188 33.175Q198.87813 33.76875 198.87813 34.6125Q198.87813 36.034374 197.7375 36.89375Q196.6125 37.753124 194.8 37.753124Q193.53438 37.753124 192.55 37.3Q191.58125 36.846874 191.01875 36.05Q190.47188 35.2375 190.47188 34.3L192.28438 34.3Q192.33125 35.20625 193.00313 35.7375Q193.69063 36.26875 194.8 36.26875Q195.83125 36.26875 196.44063 35.8625Q197.06563 35.440624 197.06563 34.753124ZM214.2375 30.971874L208.08125 30.971874L208.08125 36.01875L215.2375 36.01875L215.2375 37.55L206.20625 37.55L206.20625 23.33125L215.14375 23.33125L215.14375 24.878124L208.08125 24.878124L208.08125 29.440624L214.2375 29.440624L214.2375 30.971874ZM220.45625 30.846874L222.8 26.9875L224.90938 26.9875L221.45625 32.20625L225.01875 37.55L222.94063 37.55L220.4875 33.596874L218.05 37.55L215.95625 37.55L219.51875 32.20625L216.06563 26.9875L218.14375 26.9875L220.45625 30.846874ZM235.84688 32.378124Q235.84688 34.8 234.7375 36.284374Q233.64375 37.753124 231.75313 37.753124Q229.83125 37.753124 228.72188 36.51875L228.72188 41.6125L226.925 41.6125L226.925 26.9875L228.56563 26.9875L228.65938 28.159374Q229.75313 26.784374 231.72188 26.784374Q233.62813 26.784374 234.7375 28.221874Q235.84688 29.659374 235.84688 32.221874L235.84688 32.378124ZM234.03438 32.175Q234.03438 30.39375 233.26875 29.3625Q232.51875 28.315624 231.19063 28.315624Q229.55 28.315624 228.72188 29.76875L228.72188 34.83125Q229.53438 36.26875 231.20625 36.26875Q232.50313 36.26875 233.26875 35.2375Q234.03438 34.20625 234.03438 32.175ZM242.3 37.753124Q240.15938 37.753124 238.8 36.346874Q237.45625 34.925 237.45625 32.565624L237.45625 32.221874Q237.45625 30.659374 238.05 29.425Q238.65938 28.190624 239.7375 27.4875Q240.81563 26.784374 242.08125 26.784374Q244.14375 26.784374 245.28438 28.14375Q246.425 29.503124 246.425 32.034374L246.425 32.784374L239.26875 32.784374Q239.3 34.346874 240.175 35.315624Q241.05 36.26875 242.39375 36.26875Q243.3625 36.26875 244.01875 35.878124Q244.69063 35.4875 245.19063 34.846874L246.28438 35.70625Q244.95625 37.753124 242.3 37.753124ZM242.08125 28.26875Q240.9875 28.26875 240.2375 29.065624Q239.50313 29.8625 239.33125 31.3L244.6125 31.3L244.6125 31.159374Q244.53438 29.784374 243.8625 29.034374Q243.20625 28.26875 242.08125 28.26875ZM254.01875 28.596874Q253.6125 28.534374 253.14375 28.534374Q251.3625 28.534374 250.72188 30.05L250.72188 37.55L248.925 37.55L248.925 26.9875L250.675 26.9875L250.70625 28.20625Q251.59688 26.784374 253.22188 26.784374Q253.75313 26.784374 254.01875 26.925L254.01875 28.596874ZM257.8781 37.55L256.08124 37.55L256.08124 26.9875L257.8781 26.9875L257.8781 37.55ZM255.925 24.175Q255.925 23.7375 256.1906 23.440624Q256.47186 23.128124 256.9875 23.128124Q257.51874 23.128124 257.78436 23.440624Q258.0656 23.7375 258.0656 24.175Q258.0656 24.6125 257.78436 24.909374Q257.51874 25.20625 256.9875 25.20625Q256.47186 25.20625 256.1906 24.909374Q255.925 24.6125 255.925 24.175ZM265.3 37.753124Q263.15936 37.753124 261.8 36.346874Q260.45624 34.925 260.45624 32.565624L260.45624 32.221874Q260.45624 30.659374 261.05 29.425Q261.65936 28.190624 262.7375 27.4875Q263.8156 26.784374 265.08124 26.784374Q267.14374 26.784374 268.28436 28.14375Q269.425 29.503124 269.425 32.034374L269.425 32.784374L262.26874 32.784374Q262.3 34.346874 263.175 35.315624Q264.05 36.26875 265.39374 36.26875Q266.3625 36.26875 267.01874 35.878124Q267.6906 35.4875 268.1906 34.846874L269.28436 35.70625Q267.95624 37.753124 265.3 37.753124ZM265.08124 28.26875Q263.9875 28.26875 263.2375 29.065624Q262.5031 29.8625 262.33124 31.3L267.6125 31.3L267.6125 31.159374Q267.53436 29.784374 266.8625 29.034374Q266.20624 28.26875 265.08124 28.26875ZM273.6281 26.9875L273.6906 28.315624Q274.89374 26.784374 276.84686 26.784374Q280.20624 26.784374 280.22186 30.565624L280.22186 37.55L278.425 37.55L278.425 30.55Q278.40936 29.409374 277.89374 28.8625Q277.39374 28.315624 276.3 28.315624Q275.425 28.315624 274.7531 28.784374Q274.09686 29.253124 273.72186 30.01875L273.72186 37.55L271.925 37.55L271.925 26.9875L273.6281 26.9875ZM287.15936 36.26875Q288.1281 36.26875 288.84686 35.690624Q289.5656 35.096874 289.64374 34.221874L291.3625 34.221874Q291.3 35.128124 290.72186 35.95625Q290.15936 36.76875 289.1906 37.26875Q288.2375 37.753124 287.15936 37.753124Q285.0031 37.753124 283.72186 36.315624Q282.45624 34.8625 282.45624 32.3625L282.45624 32.065624Q282.45624 30.51875 283.01874 29.315624Q283.58124 28.1125 284.64374 27.45625Q285.70624 26.784374 287.14374 26.784374Q288.925 26.784374 290.09686 27.846874Q291.28436 28.909374 291.3625 30.6125L289.64374 30.6125Q289.5656 29.596874 288.8625 28.940624Q288.175 28.26875 287.14374 28.26875Q285.76874 28.26875 285.0031 29.26875Q284.2531 30.253124 284.2531 32.128124L284.2531 32.471874Q284.2531 34.3 285.0031 35.284374Q285.7531 36.26875 287.15936 36.26875ZM297.3 37.753124Q295.15936 37.753124 293.8 36.346874Q292.45624 34.925 292.45624 32.565624L292.45624 32.221874Q292.45624 30.659374 293.05 29.425Q293.65936 28.190624 294.7375 27.4875Q295.8156 26.784374 297.08124 26.784374Q299.14374 26.784374 300.28436 28.14375Q301.425 29.503124 301.425 32.034374L301.425 32.784374L294.26874 32.784374Q294.3 34.346874 295.175 35.315624Q296.05 36.26875 297.39374 36.26875Q298.3625 36.26875 299.01874 35.878124Q299.6906 35.4875 300.1906 34.846874L301.28436 35.70625Q299.95624 37.753124 297.3 37.753124ZM297.08124 28.26875Q295.9875 28.26875 295.2375 29.065624Q294.5031 29.8625 294.33124 31.3L299.6125 31.3L299.6125 31.159374Q299.53436 29.784374 298.8625 29.034374Q298.20624 28.26875 297.08124 28.26875ZM303.47186 32.175Q303.47186 29.753124 304.6281 28.26875Q305.78436 26.784374 307.64374 26.784374Q309.5031 26.784374 310.58124 28.05L310.58124 22.55L312.39374 22.55L312.39374 37.55L310.7375 37.55L310.64374 36.409374Q309.5656 37.753124 307.6281 37.753124Q305.8 37.753124 304.6281 36.253124Q303.47186 34.7375 303.47186 32.315624L303.47186 32.175ZM305.28436 32.378124Q305.28436 34.175 306.01874 35.190624Q306.76874 36.20625 308.08124 36.20625Q309.8 36.20625 310.58124 34.675L310.58124 29.815624Q309.78436 28.315624 308.09686 28.315624Q306.76874 28.315624 306.01874 29.346874Q305.28436 30.378124 305.28436 32.378124ZM330.01874 24.878124L325.45624 24.878124L325.45624 37.55L323.59686 37.55L323.59686 24.878124L319.03436 24.878124L319.03436 23.33125L330.01874 23.33125L330.01874 24.878124ZM338.4406 37.55Q338.28436 37.2375 338.1906 36.440624Q336.925 37.753124 335.175 37.753124Q333.6125 37.753124 332.6125 36.8625Q331.6125 35.971874 331.6125 34.6125Q331.6125 32.971874 332.8625 32.065624Q334.1281 31.14375 336.39374 31.14375L338.15936 31.14375L338.15936 30.315624Q338.15936 29.3625 337.58124 28.8Q337.01874 28.2375 335.925 28.2375Q334.95624 28.2375 334.3 28.7375Q333.64374 29.221874 333.64374 29.909374L331.83124 29.909374Q331.83124 29.128124 332.39374 28.39375Q332.95624 27.64375 333.90936 27.221874Q334.8781 26.784374 336.03436 26.784374Q337.8625 26.784374 338.89374 27.70625Q339.925 28.6125 339.97186 30.221874L339.97186 35.08125Q339.97186 36.534374 340.33124 37.39375L340.33124 37.55L338.4406 37.55ZM335.4406 36.175Q336.3 36.175 337.05 35.7375Q337.8156 35.3 338.15936 34.596874L338.15936 32.425L336.7375 32.425Q333.425 32.425 333.425 34.3625Q333.425 35.221874 333.9875 35.70625Q334.55 36.175 335.4406 36.175ZM344.8781 37.55L343.08124 37.55L343.08124 22.55L344.8781 22.55L344.8781 37.55ZM352.3 37.753124Q350.15936 37.753124 348.8 36.346874Q347.45624 34.925 347.45624 32.565624L347.45624 32.221874Q347.45624 30.659374 348.05 29.425Q348.65936 28.190624 349.7375 27.4875Q350.8156 26.784374 352.08124 26.784374Q354.14374 26.784374 355.28436 28.14375Q356.425 29.503124 356.425 32.034374L356.425 32.784374L349.26874 32.784374Q349.3 34.346874 350.175 35.315624Q351.05 36.26875 352.39374 36.26875Q353.3625 36.26875 354.01874 35.878124Q354.6906 35.4875 355.1906 34.846874L356.28436 35.70625Q354.95624 37.753124 352.3 37.753124ZM352.08124 28.26875Q350.9875 28.26875 350.2375 29.065624Q349.5031 29.8625 349.33124 31.3L354.6125 31.3L354.6125 31.159374Q354.53436 29.784374 353.8625 29.034374Q353.20624 28.26875 352.08124 28.26875ZM360.6281 26.9875L360.6906 28.315624Q361.89374 26.784374 363.84686 26.784374Q367.20624 26.784374 367.22186 30.565624L367.22186 37.55L365.425 37.55L365.425 30.55Q365.40936 29.409374 364.89374 28.8625Q364.39374 28.315624 363.3 28.315624Q362.425 28.315624 361.7531 28.784374Q361.09686 29.253124 360.72186 30.01875L360.72186 37.55L358.925 37.55L358.925 26.9875L360.6281 26.9875ZM372.3625 24.425L372.3625 26.9875L374.34686 26.9875L374.34686 28.378124L372.3625 28.378124L372.3625 34.925Q372.3625 35.565624 372.6281 35.89375Q372.89374 36.20625 373.53436 36.20625Q373.84686 36.20625 374.39374 36.08125L374.39374 37.55Q373.675 37.753124 373.0031 37.753124Q371.8 37.753124 371.175 37.01875Q370.5656 36.284374 370.5656 34.925L370.5656 28.378124L368.64374 28.378124L368.64374 26.9875L370.5656 26.9875L370.5656 24.425L372.3625 24.425Z" fill-rule="nonzero"/></svg>